<svg width="32" height="32" viewBox="0 0 512 512" xmlns="http://www.w3.org/2000/svg">
  <!-- Simplified favicon - Sacred Saffron theme (v1.22.0) -->
  <defs>
    <linearGradient id="grad1" x1="0%" y1="0%" x2="100%" y2="100%">
      <stop offset="0%" style="stop-color:#C65D1A;stop-opacity:1" />
      <stop offset="100%" style="stop-color:#D4A017;stop-opacity:1" />
    </linearGradient>
    <radialGradient id="sunGrad" cx="50%" cy="50%" r="50%">
      <stop offset="0%" style="stop-color:#FFF8E1;stop-opacity:1" />
      <stop offset="40%" style="stop-color:#D4A017;stop-opacity:1" />
      <stop offset="100%" style="stop-color:#A94E12;stop-opacity:1" />
    </radialGradient>
  </defs>

  <circle cx="256" cy="256" r="240" fill="url(#grad1)"/>

  <g transform="translate(256, 256)">
    <ellipse cx="0" cy="-80" rx="40" ry="100" fill="#FFF8E7" opacity="0.9" transform="rotate(0)"/>
    <ellipse cx="0" cy="-80" rx="40" ry="100" fill="#FFF8E7" opacity="0.9" transform="rotate(45)"/>
    <ellipse cx="0" cy="-80" rx="40" ry="100" fill="#FFF8E7" opacity="0.9" transform="rotate(90)"/>
    <ellipse cx="0" cy="-80" rx="40" ry="100" fill="#FFF8E7" opacity="0.9" transform="rotate(135)"/>
    <ellipse cx="0" cy="-80" rx="40" ry="100" fill="#FFF8E7" opacity="0.9" transform="rotate(180)"/>
    <ellipse cx="0" cy="-80" rx="40" ry="100" fill="#FFF8E7" opacity="0.9" transform="rotate(225)"/>
    <ellipse cx="0" cy="-80" rx="40" ry="100" fill="#FFF8E7" opacity="0.9" transform="rotate(270)"/>
    <ellipse cx="0" cy="-80" rx="40" ry="100" fill="#FFF8E7" opacity="0.9" transform="rotate(315)"/>

    <ellipse cx="0" cy="-50" rx="30" ry="70" fill="#FFEDD5" opacity="0.95"/>
    <ellipse cx="0" cy="-50" rx="30" ry="70" fill="#FFEDD5" opacity="0.95" transform="rotate(60)"/>
    <ellipse cx="0" cy="-50" rx="30" ry="70" fill="#FFEDD5" opacity="0.95" transform="rotate(120)"/>
    <ellipse cx="0" cy="-50" rx="30" ry="70" fill="#FFEDD5" opacity="0.95" transform="rotate(180)"/>
    <ellipse cx="0" cy="-50" rx="30" ry="70" fill="#FFEDD5" opacity="0.95" transform="rotate(240)"/>
    <ellipse cx="0" cy="-50" rx="30" ry="70" fill="#FFEDD5" opacity="0.95" transform="rotate(300)"/>

    <circle cx="0" cy="0" r="55" fill="url(#sunGrad)"/>
    <circle cx="0" cy="0" r="25" fill="#6D2F0A"/>
  </g>
</svg>
